<svg version="1.1" preserveAspectRatio="none" xmlns="http://www.w3.org/2000/svg" width="500" height="500" viewBox="0 0 500 500"><rect width="100%" height="100%" fill="#070707" fill-opacity="1"/><svg viewBox="137.2944 432.6597 442.4943 419.0063" width="333" height="315.3240570556502" x="83.5px" y="92.338px" xmlns="http://www.w3.org/2000/svg" xmlns:xlink="http://www.w3.org/1999/xlink" preserveAspectRatio="none"><defs></defs><style>.companyName {fill:#F7DC5F;fill-opacity:1;}.icon1 {fill:#F7DC5F;fill-opacity:1;}.icon2 {fill:#8C7848;fill-opacity:1;}.icon3 {fill:#534538;fill-opacity:1;}.icon3-str {stroke:#534538;stroke-opacity:1;}.text {fill:#F7DC5F;fill-opacity:1;}</style><g opacity="1" transform="rotate(0 137.2944 829.166)">
<svg width="442.4943" height="22.5" x="137.2944" y="829.166" version="1.1" preserveAspectRatio="none" viewBox="3.24 -28.32 718.9200000000001 36.56">
  <g transform="matrix(1 0 0 1 0 0)" class="text"><path id="id-6izo4zJp33" d="M23.08-26.48L26.08-26.48L26.08 0L22.60 0L6.24-22.36L6.24 0L3.24 0L3.24-26.48L6.72-26.48L23.08-4.20L23.08-26.48Z M51.16 0L51.16-3.20Q48.76 0.32 44 0.32L44 0.32Q39.68 0.32 36.96-2.68L36.96-2.68Q34.32-5.64 34.32-10L34.32-10Q34.32-14.36 36.96-17.32L36.96-17.32Q39.68-20.32 44.20-20.32Q48.72-20.32 51.16-16.76L51.16-16.76L51.16-20L54.16-20L54.16 0L51.16 0ZM44.40-2.40L44.40-2.40Q47.64-2.40 49.52-4.64L49.52-4.64Q51.32-6.76 51.32-10L51.32-10Q51.32-13.24 49.52-15.36L49.52-15.36Q47.64-17.60 44.40-17.60L44.40-17.60Q41.20-17.60 39.20-15.36L39.20-15.36Q37.32-13.24 37.32-10L37.32-10Q37.32-6.76 39.20-4.64L39.20-4.64Q41.20-2.40 44.40-2.40Z M76.84-20L80.12-20L72.32 0L68.80 0L60.96-20L64.24-20L70.56-3.20L76.84-20Z M86.92 0L86.92-20L89.92-20L89.92 0L86.92 0ZM86.80-27.28L90.04-27.28L90.04-23.36L86.80-23.36L86.80-27.28Z M114.72-16.80L114.72-16.80L114.72-20L117.72-20L117.72-0.60Q117.72 3.72 115.26 5.98Q112.80 8.24 108.64 8.24Q104.48 8.24 102.14 6.64Q99.80 5.04 98.96 2.40L98.96 2.40L102.28 2.40Q103.56 5.52 108.12 5.52L108.12 5.52Q111.60 5.52 113.16 3.92Q114.72 2.32 114.72-0.80L114.72-0.80L114.72-3.56Q112.28 0 107.56 0L107.56 0Q103.24 0 100.52-2.96L100.52-2.96Q97.88-5.84 97.88-10.16L97.88-10.16Q97.88-14.48 100.52-17.36L100.52-17.36Q103.24-20.32 107.78-20.32Q112.32-20.32 114.72-16.80ZM107.96-2.72L107.96-2.72Q109.60-2.72 110.88-3.30Q112.16-3.88 113.08-4.88L113.08-4.88Q114.88-6.96 114.88-10.16L114.88-10.16Q114.88-13.36 113.08-15.44L113.08-15.44Q111.12-17.60 107.96-17.60L107.96-17.60Q104.72-17.60 102.76-15.44L102.76-15.44Q100.88-13.32 100.88-10.16L100.88-10.16Q100.88-7 102.76-4.88L102.76-4.88Q104.72-2.72 107.96-2.72Z M142.52 0L142.52-3.20Q140.12 0.32 135.36 0.32L135.36 0.32Q131.04 0.32 128.32-2.68L128.32-2.68Q125.68-5.64 125.68-10L125.68-10Q125.68-14.36 128.32-17.32L128.32-17.32Q131.04-20.32 135.56-20.32Q140.08-20.32 142.52-16.76L142.52-16.76L142.52-20L145.52-20L145.52 0L142.52 0ZM135.76-2.40L135.76-2.40Q139-2.40 140.88-4.64L140.88-4.64Q142.68-6.76 142.68-10L142.68-10Q142.68-13.24 140.88-15.36L140.88-15.36Q139-17.60 135.76-17.60L135.76-17.60Q132.56-17.60 130.56-15.36L130.56-15.36Q128.68-13.24 128.68-10L128.68-10Q128.68-6.76 130.56-4.64L130.56-4.64Q132.56-2.40 135.76-2.40Z M159.88 0L156.88 0L156.88-17.36L152.80-17.36L152.80-20L156.88-20L156.88-27.16L159.88-27.16L159.88-20L164.48-20L164.48-17.36L159.88-17.36L159.88 0Z M171.76 0L171.76-20L174.76-20L174.76 0L171.76 0ZM171.64-27.28L174.88-27.28L174.88-23.36L171.64-23.36L171.64-27.28Z M183.96-20L186.96-20L186.96-16.88Q188.04-18.32 189.60-19.32Q191.16-20.32 193.16-20.32Q195.16-20.32 196.60-19.76Q198.04-19.20 199.12-18.08L199.12-18.08Q201.60-15.64 201.60-11.64L201.60-11.64L201.60 0L198.60 0L198.60-11.56Q198.60-14.32 197.04-15.96Q195.48-17.60 193-17.60L193-17.60Q190.48-17.60 188.72-15.92L188.72-15.92Q186.96-14.20 186.96-11.52L186.96-11.52L186.96 0L183.96 0L183.96-20Z M226.20-16.80L226.20-16.80L226.20-20L229.20-20L229.20-0.60Q229.20 3.72 226.74 5.98Q224.28 8.24 220.12 8.24Q215.96 8.24 213.62 6.64Q211.28 5.04 210.44 2.40L210.44 2.40L213.76 2.40Q215.04 5.52 219.60 5.52L219.60 5.52Q223.08 5.52 224.64 3.92Q226.20 2.32 226.20-0.80L226.20-0.80L226.20-3.56Q223.76 0 219.04 0L219.04 0Q214.72 0 212-2.96L212-2.96Q209.36-5.84 209.36-10.16L209.36-10.16Q209.36-14.48 212-17.36L212-17.36Q214.72-20.32 219.26-20.32Q223.80-20.32 226.20-16.80ZM219.44-2.72L219.44-2.72Q221.08-2.72 222.36-3.30Q223.64-3.88 224.56-4.88L224.56-4.88Q226.36-6.96 226.36-10.16L226.36-10.16Q226.36-13.36 224.56-15.44L224.56-15.44Q222.60-17.60 219.44-17.60L219.44-17.60Q216.20-17.60 214.24-15.44L214.24-15.44Q212.36-13.32 212.36-10.16L212.36-10.16Q212.36-7 214.24-4.88L214.24-4.88Q216.20-2.72 219.44-2.72Z M256.08 0L253.08 0L253.08-17.36L249.00-17.36L249.00-20L253.08-20L253.08-27.16L256.08-27.16L256.08-20L260.68-20L260.68-17.36L256.08-17.36L256.08 0Z M267.96-28L270.96-28L270.96-16.88Q272.04-18.32 273.60-19.32Q275.16-20.32 277.16-20.32Q279.16-20.32 280.60-19.76Q282.04-19.20 283.12-18.08L283.12-18.08Q285.60-15.64 285.60-11.64L285.60-11.64L285.60 0L282.60 0L282.60-11.56Q282.60-14.32 281.04-15.96Q279.48-17.60 277-17.60L277-17.60Q274.48-17.60 272.72-15.92L272.72-15.92Q270.96-14.20 270.96-11.52L270.96-11.52L270.96 0L267.96 0L267.96-28Z M303.52-2.40L303.52-2.40Q307.56-2.40 309.32-5.76L309.32-5.76L312.60-5.76Q311.56-3.04 309.30-1.36Q307.04 0.32 303.48 0.32L303.48 0.32Q298.96 0.32 296.12-2.68L296.12-2.68Q293.36-5.60 293.36-10L293.36-10Q293.36-14.44 296-17.32L296-17.32Q298.80-20.32 303.28-20.32L303.28-20.32Q307.76-20.32 310.56-17.32L310.56-17.32Q313.20-14.44 313.20-10L313.20-10L313.20-8.80L296.44-8.80Q296.76-6.04 298.64-4.24L298.64-4.24Q300.56-2.40 303.52-2.40ZM303.28-17.60L303.28-17.60Q300.52-17.60 298.64-15.88L298.64-15.88Q296.88-14.24 296.48-11.60L296.48-11.60L310.08-11.60Q309.68-14.24 307.92-15.88L307.92-15.88Q306.04-17.60 303.28-17.60Z M353.16-23.60L337.04-23.60L337.04-14.40L351.40-14.40L351.40-11.48L337.04-11.48L337.04 0L334.04 0L334.04-26.48L353.16-26.48L353.16-23.60Z M377.24 0L374.24 0L374.24-3.12Q373.16-1.68 371.60-0.68Q370.04 0.32 368.04 0.32Q366.04 0.32 364.60-0.24Q363.16-0.80 362.08-1.92L362.08-1.92Q359.60-4.36 359.60-8.36L359.60-8.36L359.60-20L362.60-20L362.60-8.44Q362.60-5.68 364.16-4.04Q365.72-2.40 368.20-2.40L368.20-2.40Q370.72-2.40 372.48-4.08L372.48-4.08Q374.24-5.80 374.24-8.48L374.24-8.48L374.24-20L377.24-20L377.24 0Z M391.60 0L388.60 0L388.60-17.36L384.52-17.36L384.52-20L388.60-20L388.60-27.16L391.60-27.16L391.60-20L396.20-20L396.20-17.36L391.60-17.36L391.60 0Z M420.92 0L417.92 0L417.92-3.12Q416.84-1.68 415.28-0.68Q413.72 0.32 411.72 0.32Q409.72 0.32 408.28-0.24Q406.84-0.80 405.76-1.92L405.76-1.92Q403.28-4.36 403.28-8.36L403.28-8.36L403.28-20L406.28-20L406.28-8.44Q406.28-5.68 407.84-4.04Q409.40-2.40 411.88-2.40L411.88-2.40Q414.40-2.40 416.16-4.08L416.16-4.08Q417.92-5.80 417.92-8.48L417.92-8.48L417.92-20L420.92-20L420.92 0Z M440.48-20.32L440.68-20.32L440.68-17.32L440.32-17.32Q437.08-17.32 435.04-14.72L435.04-14.72Q433.12-12.24 433.12-8.80L433.12-8.80L433.12 0L430.12 0L430.12-20L433.12-20L433.12-15.08Q434.08-18.20 437.28-19.68L437.28-19.68Q438.60-20.32 440.48-20.32L440.48-20.32Z M456.32-2.40L456.32-2.40Q460.36-2.40 462.12-5.76L462.12-5.76L465.40-5.76Q464.36-3.04 462.10-1.36Q459.84 0.32 456.28 0.32L456.28 0.32Q451.76 0.32 448.92-2.68L448.92-2.68Q446.16-5.60 446.16-10L446.16-10Q446.16-14.44 448.80-17.32L448.80-17.32Q451.60-20.32 456.08-20.32L456.08-20.32Q460.56-20.32 463.36-17.32L463.36-17.32Q466.00-14.44 466.00-10L466.00-10L466.00-8.80L449.24-8.80Q449.56-6.04 451.44-4.24L451.44-4.24Q453.36-2.40 456.32-2.40ZM456.08-17.60L456.08-17.60Q453.32-17.60 451.44-15.88L451.44-15.88Q449.68-14.24 449.28-11.60L449.28-11.60L462.88-11.60Q462.48-14.24 460.72-15.88L460.72-15.88Q458.84-17.60 456.08-17.60Z M494.88-20.32L494.88-20.32Q499.36-20.32 502.16-17.32L502.16-17.32Q504.80-14.44 504.80-10L504.80-10Q504.80-5.56 502.16-2.68L502.16-2.68Q499.36 0.32 494.88 0.32L494.88 0.32Q490.40 0.32 487.60-2.68L487.60-2.68Q484.96-5.56 484.96-10L484.96-10Q484.96-14.44 487.60-17.32L487.60-17.32Q490.40-20.32 494.88-20.32ZM494.88-2.40L494.88-2.40Q498.12-2.40 500.00-4.64L500.00-4.64Q501.80-6.76 501.80-10L501.80-10Q501.80-13.24 500.00-15.36L500.00-15.36Q498.12-17.60 494.88-17.60L494.88-17.60Q491.64-17.60 489.76-15.36L489.76-15.36Q487.96-13.24 487.96-10L487.96-10Q487.96-6.76 489.76-4.64L489.76-4.64Q491.64-2.40 494.88-2.40Z M521.52-25.48L521.12-25.48Q519.00-25.48 517.94-24.54Q516.88-23.60 516.88-21.52L516.88-21.52L516.88-20L521.52-20L521.52-17.36L516.88-17.36L516.88 0L513.88 0L513.88-17.36L510.44-17.36L510.44-20L513.88-20L513.88-21.76Q513.88-25.04 515.84-26.68Q517.80-28.32 521.28-28.32L521.28-28.32L521.52-28.32L521.52-25.48Z M541.96-26.48L544.96-26.48L544.96-2.88L559.40-2.88L559.40 0L541.96 0L541.96-26.48Z M575.12-2.40L575.12-2.40Q579.16-2.40 580.92-5.76L580.92-5.76L584.20-5.76Q583.16-3.04 580.90-1.36Q578.64 0.32 575.08 0.32L575.08 0.32Q570.56 0.32 567.72-2.68L567.72-2.68Q564.96-5.60 564.96-10L564.96-10Q564.96-14.44 567.60-17.32L567.60-17.32Q570.40-20.32 574.88-20.32L574.88-20.32Q579.36-20.32 582.16-17.32L582.16-17.32Q584.80-14.44 584.80-10L584.80-10L584.80-8.80L568.04-8.80Q568.36-6.04 570.24-4.24L570.24-4.24Q572.16-2.40 575.12-2.40ZM574.88-17.60L574.88-17.60Q572.12-17.60 570.24-15.88L570.24-15.88Q568.48-14.24 568.08-11.60L568.08-11.60L581.68-11.60Q581.28-14.24 579.52-15.88L579.52-15.88Q577.64-17.60 574.88-17.60Z M608.08 0L608.08-3.20Q605.68 0.32 600.92 0.32L600.92 0.32Q596.60 0.32 593.88-2.68L593.88-2.68Q591.24-5.64 591.24-10L591.24-10Q591.24-14.36 593.88-17.32L593.88-17.32Q596.60-20.32 601.12-20.32Q605.64-20.32 608.08-16.76L608.08-16.76L608.08-20L611.08-20L611.08 0L608.08 0ZM601.32-2.40L601.32-2.40Q604.56-2.40 606.44-4.64L606.44-4.64Q608.24-6.76 608.24-10L608.24-10Q608.24-13.24 606.44-15.36L606.44-15.36Q604.56-17.60 601.32-17.60L601.32-17.60Q598.12-17.60 596.12-15.36L596.12-15.36Q594.24-13.24 594.24-10L594.24-10Q594.24-6.76 596.12-4.64L596.12-4.64Q598.12-2.40 601.32-2.40Z M630.64-20.32L630.84-20.32L630.84-17.32L630.48-17.32Q627.24-17.32 625.20-14.72L625.20-14.72Q623.28-12.24 623.28-8.80L623.28-8.80L623.28 0L620.28 0L620.28-20L623.28-20L623.28-15.08Q624.24-18.20 627.44-19.68L627.44-19.68Q628.76-20.32 630.64-20.32L630.64-20.32Z M638.08-20L641.08-20L641.08-16.88Q642.16-18.32 643.72-19.32Q645.28-20.32 647.28-20.32Q649.28-20.32 650.72-19.76Q652.16-19.20 653.24-18.08L653.24-18.08Q655.72-15.64 655.72-11.64L655.72-11.64L655.72 0L652.72 0L652.72-11.56Q652.72-14.32 651.16-15.96Q649.60-17.60 647.12-17.60L647.12-17.60Q644.60-17.60 642.84-15.92L642.84-15.92Q641.08-14.20 641.08-11.52L641.08-11.52L641.08 0L638.08 0L638.08-20Z M664.72 0L664.72-20L667.72-20L667.72 0L664.72 0ZM664.60-27.28L667.84-27.28L667.84-23.36L664.60-23.36L664.60-27.28Z M676.92-20L679.92-20L679.92-16.88Q681.00-18.32 682.56-19.32Q684.12-20.32 686.12-20.32Q688.12-20.32 689.56-19.76Q691.00-19.20 692.08-18.08L692.08-18.08Q694.56-15.64 694.56-11.64L694.56-11.64L694.56 0L691.56 0L691.56-11.56Q691.56-14.32 690.00-15.96Q688.44-17.60 685.96-17.60L685.96-17.60Q683.44-17.60 681.68-15.92L681.68-15.92Q679.92-14.20 679.92-11.52L679.92-11.52L679.92 0L676.92 0L676.92-20Z M719.16-16.80L719.16-16.80L719.16-20L722.16-20L722.16-0.60Q722.16 3.72 719.70 5.98Q717.24 8.24 713.08 8.24Q708.92 8.24 706.58 6.64Q704.24 5.04 703.40 2.40L703.40 2.40L706.72 2.40Q708.00 5.52 712.56 5.52L712.56 5.52Q716.04 5.52 717.60 3.92Q719.16 2.32 719.16-0.80L719.16-0.80L719.16-3.56Q716.72 0 712.00 0L712.00 0Q707.68 0 704.96-2.96L704.96-2.96Q702.32-5.84 702.32-10.16L702.32-10.16Q702.32-14.48 704.96-17.36L704.96-17.36Q707.68-20.32 712.22-20.32Q716.76-20.32 719.16-16.80ZM712.40-2.72L712.40-2.72Q714.04-2.72 715.32-3.30Q716.60-3.88 717.52-4.88L717.52-4.88Q719.32-6.96 719.32-10.16L719.32-10.16Q719.32-13.36 717.52-15.44L717.52-15.44Q715.56-17.60 712.40-17.60L712.40-17.60Q709.16-17.60 707.20-15.44L707.20-15.44Q705.32-13.32 705.32-10.16L705.32-10.16Q705.32-7 707.20-4.88L707.20-4.88Q709.16-2.72 712.40-2.72Z"/></g>
</svg>
</g><g opacity="1" transform="rotate(0 177.2503 717.166)">
<svg width="362.5825" height="90" x="177.2503" y="717.166" version="1.1" preserveAspectRatio="none" viewBox="1.52 -33.2 174.04 43.2">
  <g transform="matrix(1 0 0 1 0 0)" class="companyName"><path id="id-D6z1nYkh7" d="M20.48-5.12L21.60-3.72Q17.96 0.40 12.52 0.40L12.52 0.40Q10.04 0.40 8.02-0.38Q6-1.16 4.56-2.58Q3.12-4 2.32-5.96Q1.52-7.92 1.52-10.32L1.52-10.32Q1.52-12.80 2.36-14.86Q3.20-16.92 4.74-18.42Q6.28-19.92 8.38-20.76Q10.48-21.60 13-21.60L13-21.60Q17.24-21.60 19.60-19.32Q21.96-17.04 21.96-12.92L21.96-12.92Q21.96-12.28 21.76-12.14Q21.56-12 20.64-12L20.64-12L7.76-12Q7.60-11.64 7.60-10.68L7.60-10.68Q7.60-6.76 9.30-4.48Q11-2.20 13.92-2.20L13.92-2.20Q15.60-2.20 17.26-2.96Q18.92-3.72 20.48-5.12L20.48-5.12ZM8.04-14.24L13.84-14.24Q15.44-14.24 15.90-14.42Q16.36-14.60 16.36-15.28L16.36-15.28Q16.36-17.04 15.36-18.16Q14.36-19.28 12.84-19.28L12.84-19.28Q11.12-19.28 9.78-17.86Q8.44-16.44 8.04-14.24L8.04-14.24Z M44.64 0.40L44.64-2.56L44.48-2.56Q41.72 0.40 37.32 0.40L37.32 0.40Q35.04 0.40 33.14-0.40Q31.24-1.20 29.86-2.64Q28.48-4.08 27.72-6.06Q26.96-8.04 26.96-10.44L26.96-10.44Q26.96-12.84 27.74-14.88Q28.52-16.92 29.86-18.42Q31.20-19.92 33.06-20.76Q34.92-21.60 37.08-21.60L37.08-21.60Q39.08-21.60 40.62-21Q42.16-20.40 43.32-18.96L43.32-18.96L43.48-18.96L43.48-22.36Q43.48-24.72 43.42-26.42Q43.36-28.12 43.24-28.64L43.24-28.64Q43.04-29.48 42.02-29.86Q41-30.24 38.88-30.24L38.88-30.24L38.88-31.60L49-33.20L49-10.32Q49-7.32 49.06-5.70Q49.12-4.08 49.28-3.24L49.28-3.24Q49.36-2.72 49.52-2.40Q49.68-2.08 50-1.90Q50.32-1.72 50.86-1.66Q51.40-1.60 52.24-1.60L52.24-1.60L52.24-0.04L44.64 0.40ZM43.40-9.92L43.40-11.48Q43.40-13 43.08-14.30Q42.76-15.60 42.12-16.60L42.12-16.60Q41.40-17.76 40.28-18.36Q39.16-18.96 37.88-18.96L37.88-18.96Q35.52-18.96 34.28-16.80Q33.04-14.64 33.04-10.52L33.04-10.52Q33.04-6.36 34.28-4.12Q35.52-1.88 37.84-1.88L37.84-1.88Q39.16-1.88 40.36-2.56Q41.56-3.24 42.32-4.40L42.32-4.40Q42.88-5.28 43.14-6.58Q43.40-7.88 43.40-9.92L43.40-9.92Z M73.12-9.96L73.12-12.44Q73.12-13.92 72.70-15.16Q72.28-16.40 71.56-17.32Q70.84-18.24 69.86-18.76Q68.88-19.28 67.72-19.28L67.72-19.28Q65.32-19.28 64.04-17.08Q62.76-14.88 62.76-10.76L62.76-10.76Q62.76-6.60 64.04-4.40Q65.32-2.20 67.72-2.20L67.72-2.20Q69.16-2.20 70.34-2.96Q71.52-3.72 72.20-5.12L72.20-5.12Q73.12-7.08 73.12-9.96L73.12-9.96ZM73.20 3.68L73.20-2.48L73-2.48Q71.60-0.96 70.18-0.28Q68.76 0.40 66.88 0.40L66.88 0.40Q64.68 0.40 62.82-0.42Q60.96-1.24 59.60-2.70Q58.24-4.16 57.48-6.16Q56.72-8.16 56.72-10.52L56.72-10.52Q56.72-12.96 57.48-14.98Q58.24-17 59.62-18.48Q61-19.96 62.90-20.78Q64.80-21.60 67.08-21.60L67.08-21.60Q71.08-21.60 73.92-18.88L73.92-18.88L76.96-21.20L78.72-21.20L78.72 3.40Q78.72 5.08 78.82 6.04Q78.92 7 79.32 7.52Q79.72 8.04 80.50 8.20Q81.28 8.36 82.60 8.40L82.60 8.40L82.60 10L68.28 10L68.28 8.40Q69.72 8.36 70.68 8.14Q71.64 7.92 72.20 7.38Q72.76 6.84 72.98 5.94Q73.20 5.04 73.20 3.68L73.20 3.68Z M102.72-10.48L102.72-14.64Q102.72-16.24 102.64-17.18Q102.56-18.12 102.20-18.62Q101.84-19.12 101.14-19.30Q100.44-19.48 99.24-19.60L99.24-19.60L99.24-21.20L108.28-21.20L108.28-9.08Q108.28-6.64 108.34-5.26Q108.40-3.88 108.56-3.20L108.56-3.20Q108.68-2.68 108.84-2.38Q109-2.08 109.36-1.90Q109.72-1.72 110.34-1.66Q110.96-1.60 111.96-1.60L111.96-1.60L111.96-0.04L104 0.44L103.56-3.12L103.40-3.12Q102.36-1.44 100.48-0.52Q98.60 0.40 96.28 0.40L96.28 0.40Q92 0.40 89.76-2.64L89.76-2.64Q88.04-4.96 88.04-9.24L88.04-9.24L88.04-14.64Q88.04-16.28 87.96-17.22Q87.88-18.16 87.54-18.64Q87.20-19.12 86.52-19.30Q85.84-19.48 84.64-19.60L84.64-19.60L84.64-21.20L93.60-21.20L93.60-9.88Q93.60-5.84 94.60-4.02Q95.60-2.20 97.80-2.20L97.80-2.20Q100.16-2.20 101.44-4.36L101.44-4.36Q102.72-6.44 102.72-10.48L102.72-10.48Z M134.96-5.12L136.08-3.72Q132.44 0.40 127 0.40L127 0.40Q124.52 0.40 122.50-0.38Q120.48-1.16 119.04-2.58Q117.60-4 116.80-5.96Q116-7.92 116-10.32L116-10.32Q116-12.80 116.84-14.86Q117.68-16.92 119.22-18.42Q120.76-19.92 122.86-20.76Q124.96-21.60 127.48-21.60L127.48-21.60Q131.72-21.60 134.08-19.32Q136.44-17.04 136.44-12.92L136.44-12.92Q136.44-12.28 136.24-12.14Q136.04-12 135.12-12L135.12-12L122.24-12Q122.08-11.64 122.08-10.68L122.08-10.68Q122.08-6.76 123.78-4.48Q125.48-2.20 128.40-2.20L128.40-2.20Q130.08-2.20 131.74-2.96Q133.40-3.72 134.96-5.12L134.96-5.12ZM122.52-14.24L128.32-14.24Q129.92-14.24 130.38-14.42Q130.84-14.60 130.84-15.28L130.84-15.28Q130.84-17.04 129.84-18.16Q128.84-19.28 127.32-19.28L127.32-19.28Q125.60-19.28 124.26-17.86Q122.92-16.44 122.52-14.24L122.52-14.24Z M144.16-1.40L143.28 0L142.04 0L142.04-7.28L143.72-7.28Q144.40-4.40 145.68-3.08Q146.96-1.76 149-1.76L149-1.76Q150.48-1.76 151.30-2.38Q152.12-3 152.12-4.08L152.12-4.08Q152.12-5.20 151.12-6.26Q150.12-7.32 147.88-8.52L147.88-8.52Q144.84-10.16 143.52-11.78Q142.20-13.40 142.20-15.44L142.20-15.44Q142.20-16.76 142.70-17.90Q143.20-19.04 144.06-19.88Q144.92-20.72 146.12-21.18Q147.32-21.64 148.72-21.64L148.72-21.64Q149.96-21.64 151.18-21.28Q152.40-20.92 153.32-20.28L153.32-20.28L154.04-21.24L155.08-21.24L155.08-15.20L153.52-15.20Q152.60-17.48 151.62-18.48Q150.64-19.48 149.24-19.48L149.24-19.48Q148.12-19.48 147.46-18.88Q146.80-18.28 146.80-17.28L146.80-17.28Q146.80-16.16 147.78-15.16Q148.76-14.16 151.04-12.96L151.04-12.96Q152.64-12.08 153.80-11.24Q154.96-10.40 155.68-9.54Q156.40-8.68 156.74-7.74Q157.08-6.80 157.08-5.72L157.08-5.72Q157.08-4.32 156.56-3.20Q156.04-2.08 155.08-1.28Q154.12-0.48 152.78-0.04Q151.44 0.40 149.80 0.40L149.80 0.40Q148.08 0.40 146.60-0.06Q145.12-0.52 144.16-1.40L144.16-1.40Z M164.44-19L161.52-19L161.52-20.80Q163.92-21.48 165.54-22.86Q167.16-24.24 167.96-26.04L167.96-26.04L170.00-26.04L170.00-21.20L174.60-21.20L174.60-19L170.00-19L170.00-6.72Q170.00-4.24 170.54-3.20Q171.08-2.16 172.36-2.16L172.36-2.16Q173.92-2.16 174.72-3.60L174.72-3.60L175.56-2.44Q174.44 0.40 170.28 0.40L170.28 0.40Q167.52 0.40 165.98-0.88Q164.44-2.16 164.44-4.48L164.44-4.48L164.44-19Z"/></g>
</svg>
</g><g opacity="1" transform="rotate(0 267.896 432.6597)">
<svg width="181.2912" height="254.5063" x="267.896" y="432.6597" version="1.1" preserveAspectRatio="none" viewBox="42.99766540527344 20 114.00367736816406 160.04443359375">
  <g transform="matrix(1 0 0 1 0 0)"><g><path d="M157 130.6V61.7c0-.7-.6-1.3-1.3-1.3-.7 0-1.3.6-1.3 1.3v68.9c.1 1.5.8 35.8-49.6 46.7-.7.2-1.2.9-1 1.6.2.7.9 1.2 1.6 1 52.6-11.4 51.6-49 51.6-49.3z" data-color="1" class="icon1"></path><path d="M104.7 168.5c-.7.2-1.1.9-.9 1.6.2.6.7 1 1.3 1h.3c43.1-11.8 42.2-40.2 42.2-40.4V54.5c0-.7-.6-1.3-1.3-1.3-.7 0-1.3.6-1.3 1.3v76.2c-.1.2.8 26.5-40.3 37.8z" data-color="1" class="icon1"></path><path d="M104.9 157.6c-.7.2-1.1 1-.9 1.7.2.7 1 1.1 1.6.9h.1c32.5-11.6 31.7-31.4 31.6-32.2V46.3c0-.7-.6-1.3-1.3-1.3-.7 0-1.3.6-1.3 1.3v81.6c.1.8.7 18.8-29.8 29.7z" data-color="1" class="icon1"></path><path d="M104.5 146.6c-.7.3-1 1.1-.6 1.8.3.7 1.1 1 1.7.6 22.4-10.3 21.7-23.9 21.7-24.4V38.4c0-.7-.6-1.3-1.3-1.3s-1.3.6-1.3 1.3v86.3c-.1.1.4 12.4-20.2 21.9z" data-color="1" class="icon1"></path><path d="M104.3 133.2c-.6.4-.8 1.2-.4 1.8.4.6 1.2.8 1.8.4 11.6-7.7 11.1-15.3 11.1-15.6V29.1c0-.7-.6-1.3-1.3-1.3s-1.3.6-1.3 1.3V120s.3 6.5-9.9 13.2z" data-color="1" class="icon1"></path><path d="M105 124.1c.7 0 1.3-.6 1.3-1.3V21.3c0-.7-.6-1.3-1.3-1.3s-1.3.6-1.3 1.3v101.5c0 .7.6 1.3 1.3 1.3z" data-color="1" class="icon1"></path><path d="M95.2 177.4c-50.5-10.9-49.7-45.3-49.6-46.8V61.7c0-.7-.6-1.3-1.3-1.3S43 61 43 61.7v68.8c0 .4-.3 9.7 5.9 20.5 10.4 18 30.6 25.7 45.8 29 .7.2 1.4-.3 1.6-1 .1-.8-.3-1.5-1.1-1.6z" data-color="1" class="icon1"></path><path d="M57.3 146.5c4.7 7.8 14.9 18.4 37.4 24.6.7.2 1.4-.2 1.6-.9.2-.7-.2-1.4-.9-1.6-41-11.2-40.3-36.7-40.2-37.9V54.5c0-.7-.6-1.3-1.3-1.3-.7 0-1.3.6-1.3 1.3v76c-.2.3-.5 7.4 4.7 16z" data-color="1" class="icon1"></path><path d="M94.2 160.1c.7.2 1.4-.1 1.7-.8.2-.7-.1-1.4-.8-1.7-30.5-10.9-29.9-28.9-29.9-29.7V46.3c0-.7-.6-1.3-1.3-1.3-.7 0-1.3.6-1.3 1.3v81.5c-.1.9-.8 20.7 31.6 32.3z" data-color="1" class="icon1"></path><path d="M94.4 149c.7.3 1.4 0 1.7-.7.3-.6 0-1.4-.6-1.7-20.6-9.5-20.1-21.8-20.1-22V38.4c0-.7-.6-1.3-1.3-1.3s-1.3.6-1.3 1.3v86.1c-.1.6-.7 14.2 21.6 24.5z" data-color="1" class="icon1"></path><path d="M94.2 135.4c.6.4 1.4.2 1.8-.4.4-.6.2-1.4-.4-1.8-10.2-6.7-9.9-13.2-9.9-13.4V29.1c0-.7-.6-1.3-1.3-1.3-.7 0-1.3.6-1.3 1.3v90.7c.1.2-.4 7.9 11.1 15.6z" data-color="1" class="icon1"></path><path d="M95 20c-.7 0-1.3.6-1.3 1.3v101.5c0 .7.6 1.3 1.3 1.3.7 0 1.3-.6 1.3-1.3V21.3c0-.7-.6-1.3-1.3-1.3z" data-color="1" class="icon1"></path></g></g>
</svg>
</g></svg></svg>